# xmcd
#
# Track frame offsets:
#	150
#	3975
#	20083
#	38775
#	63243
#	78422
#	98174
#	110587
#	125115
#	146912
#	171644
#	180524
#	200915
#	215408
#	245194
#	262247
#	284639
#	308838
#
# Disc length: 4380 seconds
#
# Revision: 0
# Processed by: cddbd v1.5.1PL0 Copyright (c) Steve Scherf et al.
# Submitted via: dBpowerAMP V4.0
#
DISCID=21111a12
DTITLE=Truckadelic - Hey Y'all...Watch This
DYEAR=1999
DGENRE=Country
TTITLE0=Intro - WTRK (Truckadelic Radio)
TTITLE1=Truck Drivin' Man
TTITLE2=Ride Along
TTITLE3=Honey Child
TTITLE4=Superman
TTITLE5=My Dixie Wrecked
TTITLE6=One More Bottle
TTITLE7=Wanton Love
TTITLE8=Gimme A Break
TTITLE9=Lonely Lovers Walk
TTITLE10=Whup It Up
TTITLE11=Things I Learnt
TTITLE12=Three Timer
TTITLE13=I Wish
TTITLE14=Made In The Shade
TTITLE15=Tom Long
TTITLE16=Forever You and Me (Willie's Lullaby)
TTITLE17=Outro - Not In My Trailer Home
EXTD=
EXTT0=
EXTT1=
EXTT2=
EXTT3=
EXTT4=
EXTT5=
EXTT6=
EXTT7=
EXTT8=
EXTT9=
EXTT10=
EXTT11=
EXTT12=
EXTT13=
EXTT14=
EXTT15=
EXTT16=
EXTT17=
PLAYORDER=
